<svg width="139" height="97" viewBox="0 0 139 97" fill="none" xmlns="http://www.w3.org/2000/svg">
<path d="M110.427 0.0566406H2.43206C1.9017 0.057242 1.39323 0.268854 1.01821 0.645051C0.643191 1.02125 0.43224 1.53131 0.431641 2.06333V94.6992C0.43224 95.2313 0.643191 95.7413 1.01821 96.1175C1.39323 96.4937 1.9017 96.7053 2.43206 96.7059H110.427C110.957 96.7053 111.465 96.4937 111.84 96.1175C112.216 95.7413 112.426 95.2313 112.427 94.6992V2.06333C112.426 1.53131 112.216 1.02125 111.84 0.645051C111.465 0.268854 110.957 0.057242 110.427 0.0566406ZM111.624 94.6996C111.624 95.0185 111.498 95.3244 111.273 95.5505C111.049 95.7765 110.745 95.9042 110.427 95.9058H2.43206C2.11391 95.9048 1.80914 95.7773 1.58467 95.5511C1.36019 95.325 1.23435 95.0187 1.23478 94.6996V2.06333C1.23435 1.74419 1.36019 1.43792 1.58467 1.21176C1.80914 0.985608 2.11391 0.858056 2.43206 0.85711H110.427C110.745 0.858654 111.049 0.986397 111.273 1.21242C111.498 1.43845 111.624 1.74437 111.624 2.06333V94.6996Z" fill="#3F3D56"/>
<path d="M27.3593 80.2348C27.3593 80.3777 27.3555 80.5205 27.348 80.6594C27.2388 82.7498 26.3341 84.7185 24.8204 86.1594C23.3068 87.6003 21.2996 88.4036 19.2129 88.4036C17.1261 88.4036 15.119 87.6003 13.6053 86.1594C12.0917 84.7185 11.1869 82.7498 11.0777 80.6594C11.0703 80.5205 11.0664 80.3777 11.0664 80.2348C11.0664 78.0675 11.9247 75.989 13.4524 74.4565C14.9801 72.9239 17.0522 72.063 19.2127 72.063C21.3732 72.063 23.4453 72.9239 24.973 74.4565C26.5007 75.989 27.359 78.0675 27.359 80.2348H27.3593Z" fill="#C38046"/>
<path d="M102.036 74.7856H38.0264C37.6751 74.799 37.3427 74.9483 37.0988 75.2024C36.855 75.4564 36.7188 75.7953 36.7188 76.148C36.7188 76.5006 36.855 76.8396 37.0988 77.0936C37.3427 77.3476 37.6751 77.497 38.0264 77.5103H102.036C102.395 77.5233 102.746 77.3926 103.009 77.1468C103.273 76.901 103.429 76.5602 103.442 76.1993C103.456 75.8385 103.326 75.4869 103.082 75.2219C102.837 74.9568 102.498 74.7999 102.138 74.7856C102.104 74.7843 102.07 74.7843 102.036 74.7856Z" fill="#C38046"/>
<path d="M65.5688 82.959H38.0261C37.6664 82.959 37.3215 83.1023 37.0671 83.3574C36.8128 83.6126 36.6699 83.9586 36.6699 84.3194C36.6699 84.6802 36.8128 85.0262 37.0671 85.2813C37.3215 85.5365 37.6664 85.6798 38.0261 85.6798H65.5688C65.9285 85.6804 66.2737 85.5377 66.5285 85.283C66.7832 85.0283 66.9267 84.6825 66.9273 84.3217C66.9279 83.9609 66.7856 83.6146 66.5317 83.359C66.2778 83.1035 65.9331 82.9596 65.5734 82.959H65.5688Z" fill="#FFF9F1"/>
<path d="M136.085 64.679H28.0896C27.4848 64.6783 26.905 64.437 26.4774 64.0081C26.0498 63.5791 25.8093 62.9975 25.8086 62.3909V14.8477C25.8093 14.2411 26.0498 13.6595 26.4774 13.2305C26.905 12.8015 27.4848 12.5603 28.0896 12.5596H136.083C136.688 12.5603 137.268 12.8015 137.696 13.2305C138.123 13.6595 138.364 14.2411 138.364 14.8477V62.3896C138.364 62.9962 138.124 63.5779 137.697 64.0071C137.269 64.4363 136.69 64.678 136.085 64.679Z" fill="#C38046"/>
<path d="M50.0824 29.4124C49.7223 29.3967 49.3707 29.525 49.105 29.7693C48.8392 30.0136 48.6811 30.3537 48.6654 30.715C48.6496 31.0762 48.7776 31.4289 49.0211 31.6955C49.2646 31.9621 49.6037 32.1207 49.9638 32.1365C50.0033 32.1382 50.0429 32.1382 50.0824 32.1365H114.09C114.44 32.1212 114.771 31.971 115.013 31.7172C115.255 31.4635 115.39 31.1257 115.39 30.7745C115.39 30.4232 115.255 30.0855 115.013 29.8317C114.771 29.578 114.44 29.4278 114.09 29.4124H50.0824Z" fill="white"/>
<path d="M50.0824 37.305C49.7223 37.2892 49.3707 37.4176 49.105 37.6619C48.8392 37.9061 48.6811 38.2463 48.6654 38.6075C48.6496 38.9688 48.7776 39.3215 49.0211 39.5881C49.2646 39.8547 49.6037 40.0133 49.9638 40.0291C50.0033 40.0308 50.0429 40.0308 50.0824 40.0291H114.09C114.44 40.0137 114.771 39.8635 115.013 39.6098C115.255 39.356 115.39 39.0183 115.39 38.667C115.39 38.3158 115.255 37.978 115.013 37.7243C114.771 37.4705 114.44 37.3203 114.09 37.305H50.0824Z" fill="white"/>
<path d="M50.083 45.1009C49.7331 45.1162 49.4027 45.2664 49.1605 45.5202C48.9184 45.7739 48.7832 46.1117 48.7832 46.4629C48.7832 46.8142 48.9184 47.1519 49.1605 47.4057C49.4027 47.6595 49.7331 47.8096 50.083 47.825H77.6257C77.804 47.8328 77.9821 47.8053 78.1498 47.7441C78.3176 47.6828 78.4716 47.5891 78.6032 47.4681C78.7348 47.3472 78.8413 47.2014 78.9168 47.0391C78.9922 46.8769 79.035 46.7013 79.0428 46.5224C79.0506 46.3436 79.0232 46.1649 78.9622 45.9967C78.9011 45.8284 78.8076 45.6739 78.6871 45.5419C78.5665 45.4099 78.4212 45.303 78.2594 45.2273C78.0977 45.1517 77.9227 45.1087 77.7443 45.1009C77.7048 45.0992 77.6653 45.0992 77.6257 45.1009H50.083Z" fill="white"/>
</svg>
