<svg width="161" height="160" viewBox="0 0 161 160" fill="none" xmlns="http://www.w3.org/2000/svg">
<path d="M80.1964 159.853C124.065 159.853 159.627 124.29 159.627 80.422C159.627 36.5536 124.065 0.991211 80.1964 0.991211C36.328 0.991211 0.765625 36.5536 0.765625 80.422C0.765625 124.29 36.328 159.853 80.1964 159.853Z" fill="#FFF9F1"/>
<path d="M19.6787 13.4316H14.4546C14.0602 13.4316 13.7344 13.1115 13.7344 12.7114C13.7344 12.317 14.0545 11.9912 14.4546 11.9912H19.6787C20.0731 11.9912 20.3989 12.3113 20.3989 12.7114C20.3989 13.1115 20.0788 13.4316 19.6787 13.4316Z" fill="#E1C0A3"/>
<path d="M26.3061 6.81195C25.9117 6.81195 25.5859 6.49187 25.5859 6.09177V0.867639C25.5859 0.473257 25.906 0.147461 26.3061 0.147461C26.7005 0.147461 27.0263 0.467541 27.0263 0.867639V6.09177C27.0263 6.49187 26.7005 6.81195 26.3061 6.81195Z" fill="#E1C0A3"/>
<path d="M21.5191 8.64458C21.3362 8.64458 21.1533 8.57599 21.0104 8.4331L17.421 4.84365C17.1409 4.56358 17.1409 4.10633 17.421 3.82626C17.7011 3.54619 18.1583 3.54619 18.4384 3.82626L22.0278 7.41571C22.3079 7.69578 22.3079 8.15303 22.0278 8.4331C21.8849 8.57599 21.702 8.64458 21.5191 8.64458Z" fill="#E1C0A3"/>
<path d="M159.213 152.55H1.18585C0.677153 152.55 0.265625 152.139 0.265625 151.63C0.265625 151.121 0.677153 150.71 1.18585 150.71H159.219C159.727 150.71 160.139 151.121 160.139 151.63C160.139 152.139 159.722 152.55 159.213 152.55Z" fill="#9F6634"/>
<path d="M133.939 23.0789V141.062C133.939 146.389 129.623 150.704 124.296 150.704H36.0976C36.0404 150.704 35.9833 150.704 35.9261 150.704C31.9709 150.636 28.5986 148.184 27.1811 144.726C26.7181 143.594 26.4609 142.359 26.4609 141.062V23.0789C26.4609 17.7519 30.7763 13.4365 36.1033 13.4365H124.308C129.623 13.4365 133.939 17.7576 133.939 23.0789Z" fill="#9F6634"/>
<path d="M133.941 36.5068V141.064C133.941 146.391 129.626 150.706 124.299 150.706H47.2969C132.752 146.779 133.941 36.5068 133.941 36.5068Z" fill="#9F6634"/>
<path d="M37.2422 21.085V134.598L43.7809 141.143H123.16V21.085H37.2422Z" fill="white"/>
<path d="M43.7809 141.145L37.2422 134.601H43.7809V141.145Z" fill="#E1C0A3"/>
<path d="M96.6485 10.1326H88.075C87.0691 10.1326 86.2574 9.32095 86.2574 8.31499C86.2574 6.93751 85.1314 5.81152 83.754 5.81152H76.6494C75.2719 5.81152 74.1459 6.93751 74.1459 8.31499C74.1459 9.32095 73.3343 10.1326 72.3283 10.1326H63.7548C62.7431 10.1326 61.9258 10.9499 61.9258 11.9616V22.9757C61.9258 23.6673 62.3144 24.2789 62.8803 24.5818C63.1375 24.7247 63.4347 24.8047 63.7548 24.8047H96.6485C97.6602 24.8047 98.4776 23.9817 98.4776 22.97V11.9616C98.4776 10.9499 97.6602 10.1326 96.6485 10.1326Z" fill="#E1C0A3"/>
<path d="M96.2894 23.1339H64.1101C63.7443 23.1339 63.4414 22.831 63.4414 22.4651V12.3084C63.4414 11.9426 63.7443 11.6396 64.1101 11.6396H96.2894C96.6552 11.6396 96.9581 11.9426 96.9581 12.3084V22.4651C96.9581 22.831 96.6552 23.1339 96.2894 23.1339Z" stroke="white" stroke-width="0.571568" stroke-linecap="round" stroke-linejoin="round" stroke-dasharray="1.15 1.15"/>
<path d="M65.6924 146.64H18.418V150.703H65.6924V146.64Z" fill="#E1C0A3"/>
<path d="M68.4253 150.703H65.6875V146.64H68.4253C68.7625 146.64 69.0312 146.908 69.0312 147.246V150.098C69.0369 150.429 68.7625 150.703 68.4253 150.703Z" fill="#E1C0A3"/>
<path d="M18.4189 146.64V150.703L14.8466 149.515L12.3203 148.674L14.8466 147.828L18.4189 146.64Z" fill="#E1C0A3"/>
<path d="M14.8466 147.827V149.513L12.3203 148.673L14.8466 147.827Z" fill="#9F6634"/>
<mask id="path-16-inside-1_2254_86551" fill="white">
<path d="M88.9095 82.7041C93.4038 75.88 92.6489 66.6146 86.6449 60.6106C79.7774 53.7431 68.6431 53.7431 61.7756 60.6106C54.9081 67.478 54.9081 78.6124 61.7756 85.4798C67.7794 91.4836 77.0443 92.2387 83.8683 87.745L103.768 107.644C105.16 109.036 107.417 109.036 108.809 107.644C110.201 106.252 110.201 103.995 108.809 102.603L88.9095 82.7041Z"/>
</mask>
<path d="M88.9095 82.7041C93.4038 75.88 92.6489 66.6146 86.6449 60.6106C79.7774 53.7431 68.6431 53.7431 61.7756 60.6106C54.9081 67.478 54.9081 78.6124 61.7756 85.4798C67.7794 91.4836 77.0443 92.2387 83.8683 87.745L103.768 107.644C105.16 109.036 107.417 109.036 108.809 107.644C110.201 106.252 110.201 103.995 108.809 102.603L88.9095 82.7041Z" fill="white"/>
<path d="M86.6449 60.6106L83.2356 64.0198L86.6449 60.6106ZM88.9095 82.7041L84.8829 80.0523L82.7214 83.3344L85.5003 86.1133L88.9095 82.7041ZM61.7756 85.4798L65.1848 82.0706L61.7756 85.4798ZM83.8683 87.745L87.2776 84.3358L84.4988 81.557L81.2167 83.7183L83.8683 87.745ZM103.768 107.644L107.177 104.235L103.768 107.644ZM108.809 102.603L112.218 99.1942L108.809 102.603ZM83.2356 64.0198C87.5895 68.3737 88.1439 75.1007 84.8829 80.0523L92.9361 85.3559C98.6636 76.6592 97.7082 64.8555 90.0541 57.2013L83.2356 64.0198ZM65.1848 64.0198C70.1694 59.0352 78.251 59.0352 83.2356 64.0198L90.0541 57.2013C81.3038 48.451 67.1167 48.451 58.3664 57.2013L65.1848 64.0198ZM65.1848 82.0706C60.2002 77.086 60.2002 69.0044 65.1848 64.0198L58.3664 57.2013C49.616 65.9516 49.616 80.1387 58.3664 88.8891L65.1848 82.0706ZM81.2167 83.7183C76.2652 86.9788 69.5385 86.4243 65.1848 82.0706L58.3664 88.8891C66.0202 96.5429 77.8234 97.4985 86.52 91.7717L81.2167 83.7183ZM107.177 104.235L87.2776 84.3358L80.4591 91.1542L100.359 111.054L107.177 104.235ZM105.4 104.235C105.89 103.744 106.686 103.744 107.177 104.235L100.359 111.054C103.633 114.329 108.943 114.329 112.218 111.054L105.4 104.235ZM105.4 106.013C104.909 105.522 104.909 104.726 105.4 104.235L112.218 111.054C115.493 107.779 115.493 102.469 112.218 99.1942L105.4 106.013ZM85.5003 86.1133L105.4 106.013L112.218 99.1942L92.3187 79.2949L85.5003 86.1133Z" fill="#9F6634" mask="url(#path-16-inside-1_2254_86551)"/>
</svg>
